<svg xmlns="http://www.w3.org/2000/svg" viewBox="0 0 1200 750" preserveAspectRatio="xMidYMid slice" role="img" aria-label="Nuancier : crème, sauge, laiton et bleu profond">
  <rect width="1200" height="750" fill="#EFEAE1"/>
  <!-- éventail de nuancier -->
  <g transform="rotate(-8 600 420)">
    <rect x="330" y="200" width="180" height="420" rx="14" fill="#F7F4EF" stroke="#E0D7C4" stroke-width="3"/>
  </g>
  <g transform="rotate(2 600 420)">
    <rect x="420" y="170" width="180" height="430" rx="14" fill="#DFE6E0" stroke="#C9D3CB" stroke-width="3"/>
  </g>
  <g transform="rotate(12 600 420)">
    <rect x="510" y="150" width="180" height="440" rx="14" fill="#8A9B8E"/>
  </g>
  <g transform="rotate(22 600 420)">
    <rect x="600" y="140" width="180" height="450" rx="14" fill="#B08D57"/>
  </g>
  <g transform="rotate(32 600 420)">
    <rect x="690" y="140" width="180" height="460" rx="14" fill="#33465C"/>
  </g>
  <g transform="rotate(42 620 430)">
    <rect x="780" y="150" width="180" height="460" rx="14" fill="#1F2A38"/>
  </g>
  <circle cx="470" cy="580" r="16" fill="#B08D57"/>
  <!-- pinceau -->
  <g transform="rotate(-24 260 520)">
    <rect x="240" y="330" width="22" height="260" rx="10" fill="#D9BE93"/>
    <rect x="236" y="580" width="30" height="34" rx="4" fill="#B08D57"/>
    <path d="M236 614 q15 60 30 0 q-4 44 -15 56 q-11 -12 -15 -56 Z" fill="#8A9B8E"/>
  </g>
</svg>
